<?xml version="1.0" encoding="utf-8"?>
<svg version="1.1" id="logo" xmlns="http://www.w3.org/2000/svg" xmlns:xlink="http://www.w3.org/1999/xlink" x="0px" y="0px"
	 viewBox="0 0 200.14 53.845" xml:space="preserve">
<style type="text/css">
	.st0{fill:none;}
	.st1{fill:#f9e5c0;}
  .st2 {fill: #FAF49B;}
  .st3 {fill: #F2DD74;}
  .st4 {fill: #FFDF3D;}
</style>
<g>
	<path class="st0" d="M74.504,25.619h-2.594v3.508h2.406c0.708,0,1.277-0.148,1.707-0.443c0.43-0.296,0.645-0.731,0.645-1.304
		C76.668,26.206,75.946,25.619,74.504,25.619z"/>
	<path class="st0" d="M127.291,25.887h-1.465v9.961h1.465c0.932,0,1.719-0.453,2.359-1.357c0.64-0.906,0.961-2.138,0.961-3.696
		c0-1.335-0.285-2.488-0.853-3.455C129.188,26.371,128.366,25.887,127.291,25.887z"/>
	<polygon class="st1" points="51.732,26.117 55.537,26.117 55.537,40.069 60.873,40.069 60.873,26.117 64.677,26.117 64.677,21.721
		51.732,21.721 	"/>
	<path class="st1" d="M81.896,29.927c0.43-0.81,0.645-1.745,0.645-2.802c0-1.622-0.584-2.928-1.754-3.918
		c-1.169-0.99-2.812-1.486-4.927-1.486h-9.584v18.349h5.633v-7.017h1.776l2.68,7.017h6.244l-3.32-7.998
		C80.597,31.452,81.466,30.738,81.896,29.927z M76.022,28.684c-0.43,0.295-0.999,0.443-1.707,0.443h-2.406v-3.508h2.594
		c1.443,0,2.164,0.587,2.164,1.761C76.668,27.953,76.452,28.388,76.022,28.684z"/>
	<polygon class="st1" points="85.271,40.069 99.076,40.069 99.076,35.687 90.796,35.687 90.796,32.689 97.49,32.689 97.49,28.617
		90.796,28.617 90.796,25.955 99.076,25.955 99.076,21.721 85.271,21.721 	"/>
	<path class="st1" d="M112.411,27.152c0,1.639,0.143,3.244,0.429,4.812c-0.438-1.013-1.083-2.186-1.935-3.522l-4.275-6.72h-5.324
		v18.349h4.57v-8.885c0-0.825-0.148-1.829-0.444-3.011c0.656,1.487,1.306,2.75,1.951,3.79l5.026,8.107h4.584V21.721h-4.584V27.152z"
		/>
	<path class="st1" d="M127.291,21.721h-7.097v18.349h7.447c2.626,0,4.76-0.858,6.406-2.574c1.644-1.716,2.466-3.945,2.466-6.688
		c0-2.401-0.766-4.517-2.298-6.344C132.682,22.635,130.374,21.721,127.291,21.721z M129.65,34.491
		c-0.64,0.905-1.427,1.357-2.359,1.357h-1.465v-9.961h1.465c1.076,0,1.898,0.484,2.467,1.452c0.568,0.968,0.853,2.12,0.853,3.455
		C130.611,32.353,130.29,33.585,129.65,34.491z"/>
	<rect x="138.891" y="21.721" class="st1" width="5.632" height="18.349"/>
	<path class="st1" d="M158.827,27.152c0,1.639,0.143,3.244,0.429,4.812c-0.438-1.013-1.083-2.186-1.935-3.522l-4.276-6.72h-5.323
		v18.349h4.571v-8.885c0-0.825-0.149-1.829-0.444-3.011c0.656,1.487,1.306,2.75,1.951,3.79l5.026,8.107h4.584V21.721h-4.584V27.152z
		"/>
	<path class="st1" d="M174.487,25.511c1.406,0,2.245,0.954,2.513,2.864l5.458-0.538c-0.395-2.043-1.259-3.62-2.594-4.731
		c-1.335-1.112-3.096-1.666-5.283-1.666c-2.912,0-5.105,0.934-6.579,2.802s-2.212,4.173-2.212,6.916
		c0,2.823,0.762,5.061,2.285,6.715c1.524,1.653,3.468,2.48,5.834,2.48c2.231,0,3.916-0.735,5.054-2.204
		c0.269,0.52,0.515,1.16,0.739,1.922h2.756V29.786h-8.267v3.899h3.039c-0.01,0.717-0.254,1.282-0.733,1.694
		c-0.48,0.412-1.06,0.618-1.741,0.618c-0.842,0-1.559-0.338-2.15-1.014c-0.592-0.676-0.887-2.078-0.887-4.201
		C171.717,27.268,172.641,25.511,174.487,25.511z"/>
	<path class="st1" d="M199.073,31.05c-0.618-0.866-1.389-1.477-2.312-1.834c-0.923-0.358-2.483-0.769-4.679-1.232
		c-0.798-0.17-1.336-0.349-1.613-0.537c-0.278-0.189-0.417-0.452-0.417-0.793c0-0.762,0.613-1.143,1.841-1.143
		c1.479,0,2.46,0.614,2.944,1.841l4.664-1.411c-1.201-3.003-3.67-4.503-7.406-4.503c-2.465,0-4.353,0.573-5.666,1.721
		s-1.97,2.586-1.97,4.315c0,1.345,0.457,2.515,1.371,3.51c0.913,0.995,2.979,1.801,6.197,2.418c0.842,0.17,1.427,0.364,1.755,0.584
		c0.326,0.22,0.491,0.527,0.491,0.921c0,0.752-0.708,1.129-2.124,1.129c-1.819,0-2.948-0.739-3.387-2.218l-5.229,0.942
		c1.048,3.727,3.808,5.591,8.28,5.591c2.447,0,4.422-0.576,5.928-1.728c1.505-1.152,2.258-2.657,2.258-4.514
		C200,32.935,199.691,31.915,199.073,31.05z"/>
	<path class="st2" d="M30.033,8.4c-15.354,10.312-4.444,21.088-4.444,28.535c0,9.726-15.145,17.492-24.971,4.428
		c2.484,7.233,9.467,12.443,17.693,12.443c10.307,0,18.663-8.179,18.663-18.268C36.974,22.305,27.215,24.972,30.033,8.4z"/>
	<path class="st3" d="M22.599,40.455c-7.804,6.832-14.073-2.422-11.21-7.782c2.523-4.723,0.547-16.448-6.589-20.482
		c0.724,5.587,0.1,9.937-3.021,15.154c-2.218,3.708-2.294,9.388-0.612,12.219C5.457,46.778,17.954,50.125,22.599,40.455z"/>
	<path class="st4" d="M13.912,27.949c6.299-7.183,12.588-17.714,4.742-27.815c0.799,7.688-0.086,12.914-7.018,16.841
		C13.469,20.557,14.167,22.599,13.912,27.949z"/>
</g>
</svg>
